HIERARCHY
ROOT Hips
{
  OFFSET 18.1304 107.864 -338.589
  CHANNELS 6 Xposition Yposition Zposition Zrotation Xrotation Yrotation
  JOINT ToSpine
  {
    OFFSET -2.69724 7.43032 -0.144315
    CHANNELS 3 Zrotation Xrotation Yrotation
    JOINT Spine
    {
      OFFSET -0.0310711 10.7595 1.96963
      CHANNELS 3 Zrotation Xrotation Yrotation
      JOINT Spine1
      {
        OFFSET 19.9056 3.91189 0.764692
        CHANNELS 3 Zrotation Xrotation Yrotation
        JOINT Neck
        {
          OFFSET 25.9749 7.03908 -0.130764
          CHANNELS 3 Zrotation Xrotation Yrotation
          JOINT Head
          {
            OFFSET 9.52751 0.295786 -0.907742
            CHANNELS 3 Zrotation Xrotation Yrotation
            End Site
            {
              OFFSET 16.4037 0.713936 2.7358
            }
          }
        }
        JOINT LeftShoulder
        {
          OFFSET 17.7449 4.33886 11.7777
          CHANNELS 3 Zrotation Xrotation Yrotation
          JOINT LeftArm
          {
            OFFSET 0.911315 1.27913 9.80584
            CHANNELS 3 Zrotation Xrotation Yrotation
            JOINT LeftForeArm
            {
              OFFSET 28.6126 1.18197 -3.53199
              CHANNELS 3 Zrotation Xrotation Yrotation
              JOINT LeftHand
              {
                OFFSET 27.5088 0.0218783 0.327423
                CHANNELS 3 Zrotation Xrotation Yrotation
                End Site
                {
                  OFFSET 18.6038 -0.000155887 0.382096
                }
              }
            }
          }
        }
        JOINT RightShoulder
        {
          OFFSET 17.1009 2.89543 -12.2328
          CHANNELS 3 Zrotation Xrotation Yrotation
          JOINT RightArm
          {
            OFFSET 1.4228 0.178766 -10.211
            CHANNELS 3 Zrotation Xrotation Yrotation
            JOINT RightForeArm
            {
              OFFSET 28.733 1.87905 2.64907
              CHANNELS 3 Zrotation Xrotation Yrotation
              JOINT RightHand
              {
                OFFSET 27.4588 0.290562 -0.101845
                CHANNELS 3 Zrotation Xrotation Yrotation
                End Site
                {
                  OFFSET 17.8396 -0.255518 -0.000602873
                }
              }
            }
          }
        }
      }
    }
  }
  JOINT LeftUpLeg
  {
    OFFSET -5.61296 -2.22332 -10.2353
    CHANNELS 3 Zrotation Xrotation Yrotation
    JOINT LeftLeg
    {
      OFFSET 2.56703 -44.7417 -7.93097
      CHANNELS 3 Zrotation Xrotation Yrotation
      JOINT LeftFoot
      {
        OFFSET 3.16933 -46.5642 -3.96578
        CHANNELS 3 Zrotation Xrotation Yrotation
        JOINT LeftToeBase
        {
          OFFSET 0.346054 -6.02161 12.8035
          CHANNELS 3 Zrotation Xrotation Yrotation
          End Site
          {
            OFFSET 0.134235 -1.35082 5.13018
          }
        }
      }
    }
  }
  JOINT RightUpLeg
  {
    OFFSET -5.7928 -1.72406 10.6446
    CHANNELS 3 Zrotation Xrotation Yrotation
    JOINT RightLeg
    {
      OFFSET -2.57161 -44.7178 -7.85259
      CHANNELS 3 Zrotation Xrotation Yrotation
      JOINT RightFoot
      {
        OFFSET -3.10148 -46.5936 -4.03391
        CHANNELS 3 Zrotation Xrotation Yrotation
        JOINT RightToeBase
        {
          OFFSET -0.0828122 -6.13587 12.8035
          CHANNELS 3 Zrotation Xrotation Yrotation
          End Site
          {
            OFFSET -0.131328 -1.35082 5.13018
          }
        }
      }
    }
  }
}
MOTION
Frames:	19
Frame Time:	0.0333333
18.1281 107.864 -338.589 20.1851 -71.2666 -68.2918 -70.1915 0 88.8779 86.5184 75.4384 1.37139 -5.13433 23.6992 7.66505 -144.386 25.6209 173.077 -153.883 64.3866 177.096 1.36556 -8.62426 -38.678 -97.699 45.8819 -90.6483 -11.1275 49.4657 2.93382 1.50652 0.0260273 2.37219 2.55687 -10.9582 36.5022 -70.4449 -49.5864 92.8556 -1.81709 9.62393 26.1143 6.47295 -0.579174 -11.6735 -60.0903 -3.0952 94.2973 2.04879 12.742 -7.37069 7.8578 6.29963 -1.03395 -9.17072 -21.2914 -3.03891 -61.2868 6.56541 81.2732 -0.615505 14.967 -14.2463 -6.97119 0.450338 1.01152 -1.25438 -8.10663 -3.50614 
18.1281 107.865 -338.603 20.4725 -71.2595 -68.0013 -70.1915 0 88.8779 86.9546 75.4292 0.837002 -5.34227 23.625 7.83436 -144.078 25.4241 172.427 -152.146 64.0108 175.423 1.34252 -8.71258 -38.7017 -97.6737 45.904 -90.6068 -11.2313 49.5215 3.02436 1.51369 0.0260713 2.44536 2.52698 -10.9162 36.2863 -70.5079 -49.7595 92.7701 -1.59547 9.22146 25.9729 6.57906 -0.574622 -11.386 -60.0578 -3.08306 94.3292 2.02216 12.8319 -7.46358 7.85147 6.31747 -1.03278 -9.16727 -21.3156 -2.92327 -61.2932 6.53353 81.2456 -0.586539 14.9979 -14.3374 -6.9839 0.421251 1.01342 -1.31279 -8.25578 -3.10612 
18.1367 107.887 -338.62 20.5095 -71.1224 -67.8912 -70.1915 0 88.8779 86.2712 75.2027 1.8183 -4.92277 23.5964 7.1982 -144.289 25.1348 171.692 -151.39 63.6422 174.3 1.37048 -8.57417 -38.0655 -97.9743 46.3682 -90.3996 -10.9467 49.7129 2.84423 1.47897 0.0258541 2.43837 2.50023 -10.5847 36.8198 -71.3475 -49.3284 92.1423 -1.43836 9.02135 25.6737 8.26805 -1.12699 -17.121 -59.7853 -3.07361 94.2981 2.11158 13.0783 -7.49248 7.71303 6.30409 -1.00872 -9.16531 -21.2272 -3.23185 -61.3064 6.61848 81.3311 -0.589438 14.6786 -14.5672 -7.04094 0.556433 1.01921 -1.30201 -8.11152 -2.80667 
18.2618 107.857 -338.642 24.0784 -71.3574 -64.5574 -70.1915 0 88.8779 89.3562 74.8203 -2.18476 -5.2416 22.897 8.00991 -144.266 25.1513 172.167 -151.331 63.6117 174.464 1.41311 -8.44205 -38.641 -98.1745 46.0827 -90.589 -11.3888 49.953 3.48157 1.58542 0.0265219 2.30661 2.43907 -10.4892 36.3857 -71.1204 -49.4691 92.3676 -1.23577 8.63395 25.5815 8.79751 -1.18338 -16.8197 -60.482 -3.76283 93.8593 2.38617 13.03 -8.08809 7.68561 6.64059 -1.00212 -9.25128 -21.5288 -2.81383 -61.9096 5.86734 80.6592 -0.267726 14.9832 -14.883 -7.04076 0.228006 1.0225 -1.28902 -8.05138 -2.81198 
18.2747 107.862 -338.655 23.9807 -71.3582 -64.6849 -70.1915 0 88.8779 88.7822 74.7195 -1.78792 -5.00564 22.7308 8.13682 -144.279 25.0453 172.281 -151.249 63.4834 174.516 1.45672 -8.28088 -38.7102 -98.1851 46.0328 -90.6763 -11.4173 49.8863 3.52037 1.63558 0.026836 2.285 2.37147 -10.1186 36.5795 -70.5961 -49.1628 92.7655 -1.20464 8.63768 25.4176 8.82824 -1.16883 -16.5599 -60.4252 -3.8486 93.8037 2.46485 13.203 -8.35201 7.70059 6.9187 -1.0033 -9.41426 -22.0718 -2.16748 -61.8844 5.651 80.4451 -0.0354888 15.0174 -14.7908 -7.19184 0.157572 1.04181 -1.31865 -8.08973 -2.48853 
18.2622 107.868 -338.664 23.7706 -71.3155 -64.9369 -70.1915 0 88.8779 87.8228 74.5085 -0.832283 -4.46515 22.6195 7.77275 -144.438 24.7215 171.988 -150.812 63.099 174.06 1.52654 -7.97851 -38.1879 -98.3285 46.4093 -90.8041 -11.4957 49.9066 3.74418 1.80873 0.0279196 2.289 2.31386 -9.645 37.1992 -70.4711 -48.7084 92.9315 -1.05916 8.40368 25.227 9.07314 -1.18737 -16.3408 -60.3386 -3.91338 93.7724 2.51046 13.3488 -8.73185 7.73592 7.29103 -1.00778 -9.58299 -22.7906 -1.05012 -61.7783 5.63385 80.4894 -0.0776319 15.0524 -14.8712 -7.21211 0.121247 1.04461 -1.31564 -8.04158 -2.38468 
18.2466 107.874 -338.688 23.3111 -71.3964 -65.3708 -70.1915 0 88.8779 87.7493 74.2864 -0.703929 -4.06873 22.396 7.67118 -145.009 24.5554 172.725 -151.536 62.952 174.759 1.64225 -7.52471 -38.1132 -97.9872 46.4552 -91.1375 -11.2603 49.4847 3.31534 1.85774 0.028225 2.39776 2.20393 -9.14862 37.2844 -69.3641 -48.4187 93.998 -1.02196 8.47633 24.8384 9.23239 -1.20837 -16.3216 -60.2691 -3.8661 93.8077 2.56695 13.6303 -9.12567 7.78711 7.60298 -1.0157 -9.77443 -23.5821 0.0238613 -61.7588 5.58304 80.4046 0.0860428 15.098 -14.7261 -7.33184 0.0831965 1.05961 -1.33624 -8.09567 -2.24261 
18.2525 107.876 -338.701 23.39 -71.4158 -65.215 -70.1915 0 88.8779 87.6455 74.0323 -0.67047 -3.79407 22.0958 7.69854 -144.885 24.2932 172.815 -151.261 62.6507 174.852 1.71527 -7.24136 -38.1115 -97.857 46.4044 -91.2046 -11.0064 49.1227 2.88902 1.86502 0.028269 2.5298 2.09948 -8.56014 37.7554 -69.348 -47.9319 93.8849 -0.794984 8.01706 24.7189 9.2369 -1.18509 -16.0099 -60.1765 -3.94308 93.6695 2.81665 13.9735 -9.55249 7.77672 7.88007 -1.01249 -9.91101 -24.3636 1.32159 -61.6988 5.60871 80.4051 0.167812 15.2758 -14.7812 -7.33391 -0.0164969 1.06061 -1.33086 -8.05715 -2.20503 
18.2451 107.877 -338.691 23.357 -71.4758 -65.1932 -70.1915 0 88.8779 87.4641 73.9136 -0.579448 -3.2968 21.9179 7.79519 -145.571 24.1671 173.144 -151.368 62.4781 174.76 1.78506 -6.96551 -38.0665 -98.6181 46.7137 -91.1429 -11.2957 49.6326 3.71624 2.0715 0.0295629 2.36995 2.03664 -8.29105 37.7788 -69.0414 -47.779 94.3733 -0.525428 7.46277 24.5019 9.4607 -1.16621 -15.3765 -60.2032 -3.95619 93.6153 2.96211 14.1423 -9.92556 7.79229 8.15588 -1.01417 -10.0234 -24.9717 2.21266 -61.6776 5.55323 80.2752 0.360422 15.4834 -14.5634 -7.36347 -0.122024 1.06498 -1.34191 -8.2494 -2.63911 
18.1994 107.879 -338.688 23.279 -71.3801 -65.2586 -70.1915 0 88.8779 87.0743 73.7446 -0.465195 -3.10343 21.6899 7.92372 -145.582 23.8924 172.652 -150.362 62.07 173.818 1.82278 -6.76534 -37.6155 -98.4321 47.0733 -90.9703 -10.4434 49.2582 2.58355 1.91952 0.0286079 2.69532 1.95769 -7.82652 38.2722 -69.1375 -47.3987 94.3196 -0.283824 6.93853 24.3603 9.39601 -1.15489 -15.3414 -60.0843 -3.9302 93.5975 2.96448 14.2407 -10.2168 7.83373 8.36975 -1.02115 -10.0712 -25.3243 2.80722 -61.4062 5.57858 80.2764 0.379792 15.8527 -14.3571 -7.26256 -0.245595 1.05381 -1.35225 -8.44823 -3.13038 
18.1235 107.893 -338.625 22.8724 -71.4188 -65.6812 -70.1915 0 88.8779 85.9949 73.5451 0.411968 -2.46107 21.5182 7.8202 -145.612 23.5268 172.084 -149.309 61.5591 172.913 1.8731 -6.48709 -37.0092 -98.5999 47.5424 -90.9709 -10.3448 49.0047 2.53042 2.01163 0.0313486 2.79115 1.8485 -7.21075 38.9563 -69.1342 -46.9078 94.2593 0.0324265 6.25683 24.3925 9.4135 -1.09928 -14.5996 -60.2199 -3.84747 93.635 2.91461 14.0453 -10.2295 7.86733 8.52186 -1.027 -10.1291 -25.5559 3.02493 -61.1437 5.64571 80.2759 0.372302 16.4775 -13.7406 -7.06518 -0.45102 1.03222 -1.63113 -10.2364 -5.32901 
18.0425 107.879 -338.561 22.3302 -71.266 -66.1569 -70.1915 0 88.8779 84.9431 73.3048 1.47922 -1.88656 21.2265 7.91228 -146.486 23.3514 173.095 -150.292 61.4159 173.608 1.99821 -6.00858 -37.1966 -99.1288 47.5958 -90.9991 -10.5488 49.2518 3.07412 2.10941 0.035204 2.74195 1.74781 -6.8401 38.8174 -67.9216 -46.59 95.7436 -0.0515724 6.02425 23.4398 9.73312 -1.07651 -13.8209 -59.937 -3.71007 93.6852 2.92298 14.233 -10.1898 7.90055 8.39031 -1.03389 -10.1737 -25.6204 2.91395 -60.7435 5.59857 80.1451 0.653387 16.9913 -13.2577 -7.13063 -0.442528 1.03986 -2.46413 -13.8369 -6.80751 
17.9915 107.863 -338.496 22.1297 -71.3007 -66.2852 -70.1915 0 88.8779 85.309 73.1043 1.15044 -1.608 21.0002 7.89436 -146.656 23.1369 173.211 -150.026 61.1249 173.344 2.0593 -5.75006 -37.1187 -98.8817 47.6367 -91.029 -9.91192 48.8498 2.11448 1.82952 0.0370423 3.14412 1.64203 -6.36649 39.0488 -67.6763 -46.377 95.8208 0.29173 5.31774 23.4857 9.80542 -1.02007 -13.0214 -59.8783 -3.63597 93.6747 3.02693 14.4367 -10.1456 7.93204 8.24441 -1.04041 -10.2023 -25.7411 3.02858 -60.5964 5.65975 80.0723 0.779601 17.45 -12.7419 -7.1503 -0.467735 1.04241 -3.04718 -16.0919 -8.04839 
17.7509 107.861 -338.41 19.3903 -71.1192 -68.9052 -70.1915 0 88.8779 83.2467 73.1086 3.54677 -0.921654 21.1377 7.54761 -146.929 22.8088 173.004 -149.383 60.6664 172.685 2.14079 -5.3607 -36.7765 -98.8337 47.8343 -91.2263 -9.76309 48.5755 1.95121 2.01789 0.0410727 3.26283 1.54646 -5.87774 39.6146 -68.0683 -45.7981 95.9675 0.360992 4.22424 22.6011 9.98493 -0.985973 -12.3675 -59.3036 -2.99956 94.1319 2.73543 14.6959 -9.87678 8.08331 8.05616 -1.06964 -10.2758 -25.9699 3.14786 -59.9144 6.33197 80.6577 0.469753 17.7805 -12.2819 -7.0682 -0.292801 1.03102 -3.86465 -19.2033 -7.48458 
17.621 107.83 -338.27 18.6754 -70.9605 -69.5514 -70.1915 0 88.8779 82.768 72.9927 4.09035 -0.618171 21.035 7.48757 -146.758 22.5407 172.473 -147.948 60.1556 171.457 2.18068 -5.17202 -36.6398 -99.4722 47.9816 -90.9567 -9.78007 48.6221 2.2649 1.8965 0.041314 3.35925 1.47758 -5.52687 40.0838 -67.6381 -45.2193 96.3885 0.224463 3.95421 22.214 10.189 -0.993299 -12.1986 -58.9824 -2.84224 94.15 2.79455 15.0224 -9.7485 8.18077 7.81358 -1.08836 -10.3776 -26.1898 3.07268 -59.4961 6.50238 80.7228 0.523597 18.3421 -11.8218 -6.99192 -0.465723 1.02374 -3.78807 -18.7338 -8.91688 
17.5157 107.776 -338.022 18.5624 -71.0323 -69.6317 -70.1915 0 88.8779 83.7133 72.6137 3.518 -0.176457 20.7328 7.05529 -147.414 22.2621 173.462 -149.139 59.9794 172.392 2.31687 -4.5722 -36.456 -99.4727 48.0405 -90.8794 -9.21432 48.3645 1.56071 1.49551 0.030954 3.06862 1.3566 -5.07373 40.0105 -67.6858 -45.2844 96.5864 0.427496 2.80339 21.7981 10.745 -1.02227 -11.8732 -58.9629 -2.80047 94.0948 2.96409 15.4576 -9.63824 8.24834 7.5425 -1.10117 -10.5271 -26.621 3.216 -59.5877 6.58993 80.6793 0.597119 18.6169 -11.5122 -7.00707 -0.537128 1.02627 -3.76146 -18.5621 -9.58108 
17.355 107.723 -337.773 16.9547 -71.0063 -71.357 -70.1915 0 88.8779 83.6425 72.4907 3.76377 0.0555832 20.6669 6.84504 -147.155 21.8999 173.612 -148.613 59.5033 172.214 2.41953 -4.10845 -36.2935 -100.087 48.1239 -90.346 -8.82103 48.3073 1.24618 1.42954 0.0274152 2.88865 1.22308 -4.52225 40.2837 -67.9867 -44.7842 96.7678 0.0788516 1.58483 20.8087 11.2929 -1.02336 -11.2941 -58.8529 -2.6267 94.2509 2.80794 15.6136 -9.24237 8.53112 7.64792 -1.15359 -10.909 -27.581 3.25579 -59.2941 6.51874 80.5711 0.735318 19.138 -10.7897 -7.11035 -0.677455 1.0397 -3.85326 -18.8991 -9.45021 
17.2094 107.642 -337.442 15.9532 -70.9615 -72.4254 -70.1915 0 88.8779 83.4117 72.3842 4.31307 0.573973 20.6871 6.45812 -147.061 21.655 173.103 -147.96 59.1045 171.176 2.45744 -3.85435 -35.8945 -99.8226 48.262 -90.3521 -8.27635 47.6472 0.292749 1.18791 0.0209432 2.71737 1.14161 -4.17637 40.5684 -67.3817 -44.491 97.1495 0.247314 0.990507 20.7269 11.331 -1.02126 -11.233 -58.641 -2.59071 94.1749 2.86933 16.1508 -8.81852 8.8279 7.56402 -1.20831 -11.2761 -28.5949 3.48747 -59.166 6.50354 80.4727 0.803869 19.5175 -10.3244 -7.09064 -0.919606 1.03975 -3.81012 -18.7277 -9.61916 
16.985 107.524 -337.054 13.741 -71.1327 -74.7057 -70.1915 0 88.8779 84.304 72.2652 3.8944 0.85692 20.6186 6.19971 -146.997 21.2253 174.182 -148.368 58.6761 172.032 2.62095 -3.20526 -36.0687 -100.594 48.088 -89.6379 -7.63872 47.7828 -0.224551 0.920956 0.0146379 2.19231 0.955071 -3.4703 40.5815 -68.0364 -44.2105 97.0265 0.203294 -0.954163 19.9114 11.9132 -1.01624 -10.6215 -58.408 -2.44919 94.1452 3.00864 17.0439 -8.11366 9.05939 7.80002 -1.25258 -12.0671 -30.2733 2.99692 -59.1358 6.68227 80.5358 0.745465 19.9574 -9.76977 -7.1054 -1.12815 1.04342 -3.86047 -18.966 -9.12162 
